<?xml version="1.0" encoding="utf-8"?>
<!-- Generator: Adobe Illustrator 27.1.1, SVG Export Plug-In . SVG Version: 6.00 Build 0)  -->
<svg version="1.1" id="Camada_1" xmlns="http://www.w3.org/2000/svg" xmlns:xlink="http://www.w3.org/1999/xlink" x="0px" y="0px"
	 viewBox="0 0 148 148" style="enable-background:new 0 0 148 148;" xml:space="preserve">
<style type="text/css">
	.st0{opacity:0.3;fill:#FF5E2B;enable-background:new    ;}
</style>
<g id="Grupo_9" transform="translate(-478 -4268)">
	<path id="Vector" class="st0" d="M478,4268h4v4h-4V4268z"/>
	<path id="Vector-2" class="st0" d="M502,4268h4v4h-4V4268z"/>
	<path id="Vector-3" class="st0" d="M526,4268h4v4h-4V4268z"/>
	<path id="Vector-4" class="st0" d="M550,4268h4v4h-4V4268z"/>
	<path id="Vector-5" class="st0" d="M574,4268h4v4h-4V4268z"/>
	<path id="Vector-6" class="st0" d="M598,4268h4v4h-4V4268z"/>
	<path id="Vector-7" class="st0" d="M622,4268h4v4h-4V4268z"/>
	<path id="Vector-8" class="st0" d="M478,4292h4v4h-4V4292z"/>
	<path id="Vector-9" class="st0" d="M502,4292h4v4h-4V4292z"/>
	<path id="Vector-10" class="st0" d="M526,4292h4v4h-4V4292z"/>
	<path id="Vector-11" class="st0" d="M550,4292h4v4h-4V4292z"/>
	<path id="Vector-12" class="st0" d="M574,4292h4v4h-4V4292z"/>
	<path id="Vector-13" class="st0" d="M598,4292h4v4h-4V4292z"/>
	<path id="Vector-14" class="st0" d="M622,4292h4v4h-4V4292z"/>
	<path id="Vector-15" class="st0" d="M478,4316h4v4h-4V4316z"/>
	<path id="Vector-16" class="st0" d="M502,4316h4v4h-4V4316z"/>
	<path id="Vector-17" class="st0" d="M526,4316h4v4h-4V4316z"/>
	<path id="Vector-18" class="st0" d="M550,4316h4v4h-4V4316z"/>
	<path id="Vector-19" class="st0" d="M574,4316h4v4h-4V4316z"/>
	<path id="Vector-20" class="st0" d="M598,4316h4v4h-4V4316z"/>
	<path id="Vector-21" class="st0" d="M622,4316h4v4h-4V4316z"/>
	<path id="Vector-22" class="st0" d="M478,4340h4v4h-4V4340z"/>
	<path id="Vector-23" class="st0" d="M502,4340h4v4h-4V4340z"/>
	<path id="Vector-24" class="st0" d="M526,4340h4v4h-4V4340z"/>
	<path id="Vector-25" class="st0" d="M550,4340h4v4h-4V4340z"/>
	<path id="Vector-26" class="st0" d="M574,4340h4v4h-4V4340z"/>
	<path id="Vector-27" class="st0" d="M598,4340h4v4h-4V4340z"/>
	<path id="Vector-28" class="st0" d="M622,4340h4v4h-4V4340z"/>
	<path id="Vector-29" class="st0" d="M478,4364h4v4h-4V4364z"/>
	<path id="Vector-30" class="st0" d="M502,4364h4v4h-4V4364z"/>
	<path id="Vector-31" class="st0" d="M526,4364h4v4h-4V4364z"/>
	<path id="Vector-32" class="st0" d="M550,4364h4v4h-4V4364z"/>
	<path id="Vector-33" class="st0" d="M574,4364h4v4h-4V4364z"/>
	<path id="Vector-34" class="st0" d="M598,4364h4v4h-4V4364z"/>
	<path id="Vector-35" class="st0" d="M622,4364h4v4h-4V4364z"/>
	<path id="Vector-36" class="st0" d="M478,4388h4v4h-4V4388z"/>
	<path id="Vector-37" class="st0" d="M502,4388h4v4h-4V4388z"/>
	<path id="Vector-38" class="st0" d="M526,4388h4v4h-4V4388z"/>
	<path id="Vector-39" class="st0" d="M550,4388h4v4h-4V4388z"/>
	<path id="Vector-40" class="st0" d="M574,4388h4v4h-4V4388z"/>
	<path id="Vector-41" class="st0" d="M598,4388h4v4h-4V4388z"/>
	<path id="Vector-42" class="st0" d="M622,4388h4v4h-4V4388z"/>
	<path id="Vector-43" class="st0" d="M478,4412h4v4h-4V4412z"/>
	<path id="Vector-44" class="st0" d="M502,4412h4v4h-4V4412z"/>
	<path id="Vector-45" class="st0" d="M526,4412h4v4h-4V4412z"/>
	<path id="Vector-46" class="st0" d="M550,4412h4v4h-4V4412z"/>
	<path id="Vector-47" class="st0" d="M574,4412h4v4h-4V4412z"/>
	<path id="Vector-48" class="st0" d="M598,4412h4v4h-4V4412z"/>
	<path id="Vector-49" class="st0" d="M622,4412h4v4h-4V4412z"/>
</g>
</svg>
