<?xml version="1.0" encoding="utf-8"?>
<!-- Generator: Adobe Illustrator 27.1.1, SVG Export Plug-In . SVG Version: 6.00 Build 0)  -->
<svg version="1.1" id="Camada_1" xmlns="http://www.w3.org/2000/svg" xmlns:xlink="http://www.w3.org/1999/xlink" x="0px" y="0px"
	 viewBox="0 0 35.2 35.3" style="enable-background:new 0 0 35.2 35.3;" xml:space="preserve">
<style type="text/css">
	.st0{fill-rule:evenodd;clip-rule:evenodd;fill:#FFFFFF;}
</style>
<g id="_843786_whatsapp_icon" transform="translate(0)">
	<path id="Caminho_1" class="st0" d="M30,5.1c-6.8-6.8-17.9-6.8-24.8,0c-5.6,5.6-6.7,14.2-2.8,21.1L0,35.3l9.3-2.4
		c2.6,1.4,5.4,2.1,8.4,2.1h0c9.7,0,17.5-7.8,17.5-17.5C35.2,12.9,33.3,8.4,30,5.1z M17.7,32.1L17.7,32.1c-2.6,0-5.2-0.7-7.4-2
		l-0.5-0.3l-5.5,1.4l1.5-5.4l-0.3-0.6C1.1,18.4,3.1,9.5,9.9,5.2S25.7,3,30,9.8s2.2,15.8-4.6,20.1C23.1,31.3,20.4,32.1,17.7,32.1
		L17.7,32.1z"/>
	<path id="Caminho_2" class="st0" d="M25.6,20.6c-0.4-0.2-2.5-1.2-2.8-1.4s-0.7-0.2-0.9,0.2s-1.1,1.4-1.3,1.6s-0.5,0.3-0.9,0.1
		c-1.2-0.5-2.4-1.2-3.3-2.1c-0.9-0.8-1.7-1.8-2.3-2.9c-0.2-0.4,0-0.6,0.2-0.8c0.2-0.2,0.4-0.5,0.6-0.7c0.2-0.2,0.3-0.4,0.4-0.7
		c0.1-0.2,0.1-0.5,0-0.7C15,13,14.2,11,13.8,10.1c-0.3-0.8-0.7-0.7-0.9-0.7s-0.5,0-0.8,0c-0.4,0-0.8,0.2-1.1,0.5
		c-1,0.9-1.5,2.2-1.5,3.5c0.1,1.6,0.7,3.1,1.7,4.3c0.2,0.3,2.9,4.5,7.1,6.3c0.8,0.3,1.6,0.6,2.4,0.9c0.8,0.3,1.7,0.3,2.6,0.2
		c1.2-0.2,2.2-1,2.8-2c0.3-0.6,0.4-1.3,0.2-2C26.3,20.9,26,20.8,25.6,20.6z"/>
</g>
</svg>
