<?xml version="1.0" encoding="UTF-8"?><svg id="Camada_2" xmlns="http://www.w3.org/2000/svg" viewBox="0 0 673.19 291.43"><g id="Camada_1-2"><g><rect x="601.95" y="-6.22" width="23.25" height="145.34" transform="translate(1000.46 547.3) rotate(-135)" style="fill:#737277;"/><rect x="48.09" y="-6.25" width="23.25" height="145.34" transform="translate(-29.47 61.68) rotate(-45)" style="fill:#737277;"/><path d="m422.34,0v108.7c0,47.12-38.33,85.45-85.45,85.45s-85.45-38.33-85.45-85.45V0h-23.25v108.7c0,59.94,48.76,108.7,108.7,108.7s108.7-48.76,108.7-108.7V0h-23.25Z" style="fill:#9c9ba0;"/><path d="m108.81,0H.11v23.25h108.7c47.12,0,85.45,38.33,85.45,85.45s-38.33,85.45-85.45,85.45H.11v23.25h108.7c59.94,0,108.7-48.76,108.7-108.7S168.75,0,108.81,0Z" style="fill:#9c9ba0;"/><path d="m564.48,23.25h108.7V0h-108.7c-59.94,0-108.7,48.76-108.7,108.7s48.76,108.7,108.7,108.7h108.7v-23.25h-108.7c-47.12,0-85.45-38.33-85.45-85.45s38.33-85.45,85.45-85.45Z" style="fill:#9c9ba0;"/><g><path d="m319.65,249.46c-3.07-2.67-7.77-4.02-13.97-4.02-3.54,0-7.16.29-10.75.86l-.6.1v44.09h3.92v-18.56c1.97.43,4.3.47,6.38.47,6.53,0,11.91-1.72,15.15-4.84,2.49-2.36,3.7-5.41,3.7-9.31,0-3.5-1.33-6.54-3.85-8.78Zm-14.52,19.38c-2.02,0-4.77-.1-6.87-.58v-18.76c1.71-.24,4.47-.45,7.36-.45,5.21,0,13.96,1.24,13.96,9.56,0,6.5-5.27,10.23-14.45,10.23Z" style="fill:#ea7100;"/><polygon points="348.73 286.93 348.73 268.67 368.9 268.67 368.9 265.11 348.73 265.11 348.73 249.36 370 249.36 370 245.8 344.82 245.8 344.82 290.49 371.1 290.49 371.1 286.93 348.73 286.93" style="fill:#ea7100;"/><path d="m422.26,289.39c-1.1-1.68-2.03-4.99-3.69-11.76-1.03-4.12-3.3-7.17-6.47-8.75,5.51-2.05,8.63-6.14,8.63-11.43,0-2.97-1.39-6.11-3.54-7.98-3.13-2.79-7.42-4.03-13.92-4.03-3.54,0-7.99.4-11.07.99l-.57.11v43.95h3.92v-20.11h8.73c6.2.34,9.36,2.99,10.9,9.12l.36,1.43c1.2,4.82,2,8.01,2.72,9.21l.21.34h4.52l-.72-1.09Zm-26.71-39.86c1.35-.24,4-.55,7.54-.55,5.12,0,13.72,1.16,13.72,8.95,0,5.44-4.9,8.95-12.49,8.95h-8.77v-17.35Z" style="fill:#ea7100;"/><path d="m455.52,265.32c-8.49-2.27-10.23-5.2-10.23-8.91s2.82-8.03,10.78-8.03c5.42,0,8.55,2.08,8.88,2.32l.66.47,1.76-3.42-.52-.35c-1.74-1.18-5.46-2.44-10.67-2.44-8.59,0-14.83,4.95-14.83,11.77,0,6.34,3.98,9.98,13.73,12.54,8.66,2.28,10.35,5.3,10.35,9.77,0,5.33-4.59,8.77-11.7,8.77-4.46,0-8.29-1.17-11.37-3.47l-.64-.47-2.01,3.44.52.38c3.11,2.24,8.33,3.74,13,3.74,11.13,0,16.11-6.4,16.11-12.75,0-8.06-5.3-11.08-13.85-13.33Z" style="fill:#ea7100;"/><path d="m505.88,245.07c-12.17,0-21,9.94-21,23.63s8.63,22.59,20.51,22.59c10.43,0,21-8.14,21-23.69,0-13.05-8.63-22.53-20.51-22.53Zm-.31,42.72c-11.01,0-16.77-9.64-16.77-19.16,0-10.02,5.22-20.13,16.89-20.13,11.01,0,16.77,9.73,16.77,19.34,0,11.75-6.95,19.95-16.89,19.95Z" style="fill:#ea7100;"/><path d="m571.48,245.8v23.69c0,5.84.05,10.3.28,14.53-1.28-2.01-2.7-4.01-4.39-6.37-.89-1.24-1.85-2.59-2.91-4.1l-19.46-27.74h-3.21v44.68h3.92v-24.42c0-5.48-.04-9.51-.23-13.53,2,3.34,4.29,7.06,7.27,11.2l19.4,26.75h3.27v-44.68h-3.92Z" style="fill:#ea7100;"/><path d="m613.55,245.8h-3.04l-17.86,44.68h4.03l6.05-15.52h18.35l6.23,15.52h4.03l-17.8-44.68Zm6,25.55h-15.21l5.91-14.79c.73-1.81,1.3-3.3,1.77-4.75.43,1.41.94,2.94,1.75,4.93l5.79,14.62Z" style="fill:#ea7100;"/><polygon points="651.78 286.99 651.78 245.8 647.86 245.8 647.86 290.49 672.99 290.49 672.99 286.99 651.78 286.99" style="fill:#ea7100;"/><path d="m16.14,264.75c-8.71-2.33-10.49-5.34-10.49-9.14s2.9-8.24,11.06-8.24c5.55,0,8.76,2.13,9.11,2.38l.66.46,1.78-3.47-.52-.35c-1.78-1.21-5.58-2.5-10.91-2.5-8.79,0-15.16,5.06-15.16,12.04,0,6.49,4.07,10.2,14.04,12.83,8.88,2.33,10.61,5.44,10.61,10.02,0,5.46-4.71,8.99-12,8.99-4.57,0-8.49-1.19-11.66-3.55l-.63-.47-2.04,3.49.52.38c3.13,2.25,8.6,3.83,13.31,3.83,11.38,0,16.48-6.55,16.48-13.04,0-8.24-5.42-11.33-14.17-13.64Z" style="fill:#ea7100;"/><polygon points="44.79 244.76 44.79 248.37 61.12 248.37 61.12 290.49 65.1 290.49 65.1 248.37 81.37 248.37 81.37 244.76 44.79 244.76" style="fill:#ea7100;"/><path d="m126.77,244.76v26.68c0,10.48-5.06,16.25-14.25,16.25-8.54,0-13.44-5.92-13.44-16.25v-26.68h-4.04v26.74c0,17.87,12.14,19.79,17.35,19.79,11.67,0,18.36-7.33,18.36-20.11v-26.43h-3.98Z" style="fill:#ea7100;"/><path d="m181.34,251.77c-4.09-4.83-10.9-7.38-19.69-7.38-3.9,0-7.89.33-12.19,1.01l-.6.1v44.93l.64.06c3.78.33,7.32.38,10.58.38,8.99,0,16.29-2.69,20.56-7.57,4.75-5.51,5.74-12.11,5.74-16.67,0-5.89-1.65-10.75-5.05-14.85Zm-28.49-3.03c2.52-.46,5.37-.69,8.49-.69,13.59,0,21.07,6.62,21.07,18.63,0,13.07-8.02,20.57-22.01,20.57-3.17,0-5.71-.06-7.55-.33v-38.18Z" style="fill:#ea7100;"/><rect x="201.81" y="244.76" width="3.98" height="45.72" style="fill:#ea7100;"/><path d="m242.94,244.01c-12.45,0-21.49,10.17-21.49,24.18s8.82,23.11,20.98,23.11c10.68,0,21.49-8.33,21.49-24.24,0-13.36-8.82-23.05-20.98-23.05Zm-.31,43.74c-11.29,0-17.19-9.88-17.19-19.63,0-10.27,5.35-20.63,17.32-20.63,11.29,0,17.19,9.97,17.19,19.82,0,12.04-7.12,20.45-17.32,20.45Z" style="fill:#ea7100;"/></g></g></g></svg>