<svg xmlns="http://www.w3.org/2000/svg" width="75" height="48" viewBox="0 0 75.654 48.027">
  <g transform="translate(-1138 -1342.465)">
    <path d="M40.333,19.3a.505.505,0,0,1-.359-.149l-2.032-2.032a.512.512,0,0,1-.149-.359V13.207H13.207v3.556a.511.511,0,0,1-.149.359l-2.032,2.032a.505.505,0,0,1-.359.149H2.54a.5.5,0,0,1-.359-.149L.149,17.122A.511.511,0,0,1,0,16.763V2.54a.511.511,0,0,1,.149-.359L2.181.149A.505.505,0,0,1,2.54,0h8.128a.5.5,0,0,1,.359.149l2.032,2.032a.511.511,0,0,1,.149.359V6.1H37.793V2.54a.511.511,0,0,1,.149-.359L39.973.149A.506.506,0,0,1,40.333,0H48.46a.505.505,0,0,1,.359.149l2.032,2.032A.511.511,0,0,1,51,2.54V16.763a.512.512,0,0,1-.149.359l-2.032,2.032a.506.506,0,0,1-.359.149Zm4.064-5.08a.508.508,0,0,1,.508.508v3.556H48.25l1.734-1.734V2.75L48.25,1.016H44.9V4.572a.508.508,0,1,1-1.016,0V1.016H40.543L38.809,2.75v13.8l1.734,1.734h3.345V14.731a.509.509,0,0,1,.508-.508m-37.793,0a.509.509,0,0,1,.508.508v3.556h3.345l1.734-1.734V2.75L10.457,1.016H7.112V4.572a.508.508,0,0,1-1.016,0V1.016H2.75L1.016,2.75v13.8L2.75,18.287H6.1V14.731a.509.509,0,0,1,.508-.508m25.8-2.032h5.384V7.112H32.408Zm-6.4,0h5.384V7.112H26.008Zm-6.4,0h5.384V7.112H19.608Zm-6.4,0h5.384V7.112H13.207Z" transform="translate(1138 1369.189)" fill="#ff5e2b"/>
    <path id="Caminho_28" data-name="Caminho 28" d="M40.333,19.3a.505.505,0,0,1-.359-.149l-2.032-2.032a.512.512,0,0,1-.149-.359V13.207H13.207v3.556a.511.511,0,0,1-.149.359l-2.032,2.032a.505.505,0,0,1-.359.149H2.54a.5.5,0,0,1-.359-.149L.149,17.122A.511.511,0,0,1,0,16.763V2.54a.511.511,0,0,1,.149-.359L2.181.149A.505.505,0,0,1,2.54,0h8.128a.5.5,0,0,1,.359.149l2.032,2.032a.511.511,0,0,1,.149.359V6.1H37.793V2.54a.511.511,0,0,1,.149-.359L39.973.149A.506.506,0,0,1,40.333,0H48.46a.505.505,0,0,1,.359.149l2.032,2.032A.511.511,0,0,1,51,2.54V16.763a.512.512,0,0,1-.149.359l-2.032,2.032a.506.506,0,0,1-.359.149Zm4.064-5.08a.508.508,0,0,1,.508.508v3.556H48.25l1.734-1.734V2.75L48.25,1.016H44.9V4.572a.508.508,0,1,1-1.016,0V1.016H40.543L38.809,2.75v13.8l1.734,1.734h3.345V14.731a.509.509,0,0,1,.508-.508m-37.793,0a.509.509,0,0,1,.508.508v3.556h3.345l1.734-1.734V2.75L10.457,1.016H7.112V4.572a.508.508,0,0,1-1.016,0V1.016H2.75L1.016,2.75v13.8L2.75,18.287H6.1V14.731a.509.509,0,0,1,.508-.508m25.8-2.032h5.384V7.112H32.408Zm-6.4,0h5.384V7.112H26.008Zm-6.4,0h5.384V7.112H19.608Zm-6.4,0h5.384V7.112H13.207Z" transform="translate(1175.164 1342.465) rotate(41)" fill="#ff5e2b"/>
  </g>
</svg>
