<?xml version="1.0" encoding="utf-8"?>
<!-- Generator: Adobe Illustrator 27.1.1, SVG Export Plug-In . SVG Version: 6.00 Build 0)  -->
<svg version="1.1" id="Camada_1" xmlns="http://www.w3.org/2000/svg" xmlns:xlink="http://www.w3.org/1999/xlink" x="0px" y="0px"
	 viewBox="0 0 31 27" style="enable-background:new 0 0 31 27;" xml:space="preserve">
<style type="text/css">
	.st0{fill:#FF7F5C;}
</style>
<path id="_" class="st0" d="M31,0.3l-0.8,5.6c-1.3-0.2-2.7,0.1-3.8,0.8c-1,0.6-1.7,1.6-2.1,2.8c-0.4,1.3-0.4,2.8-0.2,4.1H31V27H17.7
	V13.6c0-4.7,1.1-8.3,3.3-10.8C23.2,0.4,26.5-0.5,31,0.3z M13.3,0.3l-0.8,5.6C11.2,5.7,9.8,6,8.7,6.7c-1,0.6-1.7,1.6-2,2.8
	c-0.4,1.3-0.4,2.8-0.2,4.1h6.8V27H0V13.6C0,8.9,1.1,5.3,3.3,2.8C5.5,0.4,8.8-0.5,13.3,0.3z"/>
</svg>
