<?xml version="1.0" encoding="utf-8"?>
<!-- Generator: Adobe Illustrator 27.1.1, SVG Export Plug-In . SVG Version: 6.00 Build 0)  -->
<svg version="1.1" id="Camada_1" xmlns="http://www.w3.org/2000/svg" xmlns:xlink="http://www.w3.org/1999/xlink" x="0px" y="0px"
	 viewBox="0 0 40.3 54.7" style="enable-background:new 0 0 40.3 54.7;" xml:space="preserve">
<style type="text/css">
	.st0{clip-path:url(#SVGID_00000070080574207965952230000016054080960748384906_);}
	.st1{fill:#FF5E2B;}
</style>
<g>
	<defs>
		<rect id="SVGID_1_" width="40.3" height="54.7"/>
	</defs>
	<clipPath id="SVGID_00000177470366041667509520000009257990979914467256_">
		<use xlink:href="#SVGID_1_"  style="overflow:visible;"/>
	</clipPath>
	<g id="Grupo_16" style="clip-path:url(#SVGID_00000177470366041667509520000009257990979914467256_);">
		<path id="Caminho_11" class="st1" d="M20.2,20.7c-0.3,0-0.5-0.2-0.5-0.5c0-0.3,0.2-0.5,0.5-0.5c0.3,0,0.5,0.2,0.5,0.5l0,0
			C20.7,20.5,20.5,20.7,20.2,20.7"/>
		<path id="Caminho_12" class="st1" d="M20.2,33.8c-7.5,0-13.6-6.1-13.6-13.6c0-7.5,6.1-13.6,13.6-13.6c7.5,0,13.6,6.1,13.6,13.6
			c0,0,0,0,0,0C33.8,27.7,27.7,33.8,20.2,33.8 M20.2,7.6c-6.9,0-12.5,5.6-12.5,12.5s5.6,12.5,12.5,12.5s12.5-5.6,12.5-12.5
			c0,0,0,0,0,0C32.7,13.2,27.1,7.6,20.2,7.6"/>
		<path id="Caminho_13" class="st1" d="M20.2,29.4c-1.5,0-2.7-1.2-2.7-2.7v-1.8l-1.6,0.9c-1.3,0.8-3,0.3-3.7-1s-0.3-3,1-3.7l1.6-0.9
			l-1.6-0.9c-1.3-0.8-1.7-2.4-1-3.7c0.8-1.3,2.4-1.7,3.7-1l1.6,0.9v-1.8c0-1.5,1.2-2.7,2.7-2.7c1.5,0,2.7,1.2,2.7,2.7v1.8l1.6-0.9
			c1.3-0.8,3-0.3,3.7,1s0.3,3-1,3.7l0,0l-1.6,0.9l1.6,0.9c1.3,0.8,1.7,2.4,1,3.7c-0.5,0.8-1.4,1.4-2.4,1.4l0,0
			c-0.5,0-0.9-0.1-1.4-0.4l-1.6-0.9v1.8C22.9,28.2,21.7,29.4,20.2,29.4 M18,23.4c0.3,0,0.5,0.2,0.5,0.5c0,0,0,0,0,0v2.8
			c0,0.9,0.7,1.6,1.6,1.6c0.9,0,1.6-0.7,1.6-1.6v-2.8c0-0.3,0.2-0.5,0.5-0.5c0.1,0,0.2,0,0.3,0.1l2.4,1.4c0.8,0.5,1.8,0.2,2.2-0.6
			c0.5-0.8,0.2-1.8-0.6-2.2l0,0l-0.1-0.1h0l-2.3-1.3c-0.3-0.2-0.3-0.5-0.2-0.7c0-0.1,0.1-0.2,0.2-0.2l2.4-1.4c0.8-0.5,1-1.5,0.6-2.2
			c-0.5-0.8-1.4-1-2.2-0.6l-2.4,1.4c-0.3,0.2-0.6,0.1-0.7-0.2c0-0.1-0.1-0.2-0.1-0.3v-2.8c0-0.9-0.7-1.6-1.6-1.6s-1.6,0.7-1.6,1.6
			c0,0,0,0,0,0v2.8c0,0.3-0.2,0.5-0.5,0.5c-0.1,0-0.2,0-0.3-0.1l-2.4-1.4c-0.8-0.4-1.8-0.2-2.2,0.6c-0.4,0.8-0.2,1.8,0.6,2.2
			l2.4,1.4c0.3,0.2,0.3,0.5,0.2,0.7c0,0.1-0.1,0.2-0.2,0.2L13.7,22c-0.8,0.5-1,1.5-0.6,2.2c0.5,0.8,1.4,1,2.2,0.6l2.4-1.4
			C17.8,23.4,17.9,23.4,18,23.4"/>
		<path id="Caminho_14" class="st1" d="M33.9,6.8c-0.3,0-0.5-0.2-0.5-0.5s0.2-0.5,0.5-0.5s0.5,0.2,0.5,0.5v0
			C34.4,6.5,34.2,6.8,33.9,6.8"/>
		<path id="Caminho_15" class="st1" d="M20.2,54.7c-0.9,0-1.7-0.4-2.2-1.2L3.6,31.6C-2.7,22.5-0.5,9.9,8.7,3.6
			c6.4-4.5,14.8-4.8,21.6-0.9c0.3,0.2,0.3,0.5,0.2,0.7c-0.1,0.2-0.3,0.3-0.5,0.3c-0.1,0-0.2,0-0.3-0.1C20.6-1.6,9,1.5,3.7,10.6
			C-0.1,17,0.3,24.9,4.5,31l14.3,21.9l0,0c0.5,0.7,1.5,0.9,2.3,0.4c0.1-0.1,0.3-0.2,0.4-0.4l0,0L35.8,31c4.3-6.2,4.5-14.3,0.7-20.7
			c-0.2-0.3-0.1-0.6,0.2-0.8s0.6-0.1,0.8,0.2c0,0,0,0,0,0c4.1,6.8,3.8,15.4-0.7,21.9L22.4,53.5C21.9,54.3,21,54.7,20.2,54.7"/>
	</g>
</g>
</svg>
