<?xml version="1.0" encoding="utf-8"?>
<!-- Generator: Adobe Illustrator 27.1.1, SVG Export Plug-In . SVG Version: 6.00 Build 0)  -->
<svg version="1.1" id="OUTLINE_copy_2" xmlns="http://www.w3.org/2000/svg" xmlns:xlink="http://www.w3.org/1999/xlink" x="0px"
	 y="0px" viewBox="0 0 46 46" style="enable-background:new 0 0 46 46;" xml:space="preserve">
<style type="text/css">
	.st0{fill:#ED7841;}
</style>
<g id="Grupo_28">
	<g id="Grupo_24" transform="translate(14.559 20.859)">
		<path id="Caminho_17" class="st0" d="M15.5,2.3c-0.1,3.8-3.2,6.8-7,6.8c-3.8,0.1-6.9-3-7-6.8c0-0.7,0.1-1.3,0.3-1.9L0,0v9.8
			c0,0.5,0.2,0.7,0.7,0.7h15.5c0.5,0,0.7-0.2,0.7-0.7V0l-1.7,0.4C15.4,1,15.5,1.7,15.5,2.3z"/>
	</g>
	<g id="Grupo_25" transform="translate(18.496 18.578)">
		<ellipse id="Elipse_4" class="st0" cx="4.5" cy="4.4" rx="4.5" ry="4.4"/>
	</g>
	<g id="Grupo_26">
		<path id="Caminho_18" class="st0" d="M23,0C10.3,0,0,10.3,0,23s10.3,23,23,23s23-10.3,23-23S35.7,0,23,0z M34.2,31.4
			c0,1.5-1.2,2.8-2.7,2.8c0,0-0.1,0-0.1,0H14.6c-1.5,0-2.8-1.2-2.8-2.7c0,0,0-0.1,0-0.1V14.6c0-1.5,1.2-2.8,2.7-2.8c0,0,0.1,0,0.1,0
			h16.8c1.5,0,2.8,1.2,2.8,2.7c0,0,0,0.1,0,0.1V31.4z"/>
	</g>
	<g id="Grupo_27" transform="translate(27.169 14.609)">
		<path id="Caminho_19" class="st0" d="M3.5,0H0.7C0.3,0,0,0.3,0,0.7c0,0,0,0,0,0v2.8c0,0.4,0.3,0.7,0.7,0.7l0,0h2.8
			c0.4,0,0.7-0.3,0.7-0.7c0,0,0,0,0,0V0.7C4.2,0.3,3.9,0,3.5,0C3.5,0,3.5,0,3.5,0z"/>
	</g>
</g>
</svg>
