<?xml version="1.0" encoding="utf-8"?>
<!-- Generator: Adobe Illustrator 27.1.1, SVG Export Plug-In . SVG Version: 6.00 Build 0)  -->
<svg version="1.1" id="Camada_1" xmlns="http://www.w3.org/2000/svg" xmlns:xlink="http://www.w3.org/1999/xlink" x="0px" y="0px"
	 viewBox="0 0 26.7 32.7" style="enable-background:new 0 0 26.7 32.7;" xml:space="preserve">
<style type="text/css">
	.st0{fill-rule:evenodd;clip-rule:evenodd;fill:#FF5E2B;}
</style>
<path id="_9111267_shield_ok_icon" class="st0" d="M13.4,32.7C4.5,28.7,0,24.7,0,20.8V5.9c0-1.5,0.7-1.5,3-3c3.2-1.8,6.7-2.8,10.4-3
	c3.7,0,7.3,1,10.4,3c2.2,1.5,3,1.5,3,3c0,0.4,0,12.6,0,14.8C26.7,24.7,22.3,28.7,13.4,32.7z M23.7,20.8c0-0.3,0-0.9,0-1.8
	c0-0.5,0-1.3,0-2.9c0-0.9,0-1.7,0-2.5c0-3.3,0-6.2,0-7c-0.5-0.3-1.3-0.8-1.7-1c-2.6-1.6-5.7-2.5-8.7-2.5c-3.1,0.1-6.1,1-8.7,2.5
	C4.2,5.7,3.5,6.2,3,6.5v14.3c0,2.2,3.3,5.3,10.4,8.6C20.4,26.1,23.7,23,23.7,20.8z M11.9,17.2l6.4-6.4l2.1,2.1l-8.5,8.5l-5.5-5.5
	l2.1-2.1L11.9,17.2z"/>
</svg>
