<?xml version="1.0" encoding="utf-8"?>
<!-- Generator: Adobe Illustrator 27.1.1, SVG Export Plug-In . SVG Version: 6.00 Build 0)  -->
<svg version="1.1" id="Grupo_11" xmlns="http://www.w3.org/2000/svg" xmlns:xlink="http://www.w3.org/1999/xlink" x="0px" y="0px"
	 viewBox="0 0 51 43.7" style="enable-background:new 0 0 51 43.7;" xml:space="preserve">
<style type="text/css">
	.st0{clip-path:url(#SVGID_00000156586728759524712580000010988454151354411662_);}
	.st1{fill:#FF5E2B;}
</style>
<g>
	<defs>
		<rect id="SVGID_1_" width="51" height="43.7"/>
	</defs>
	<clipPath id="SVGID_00000127766461242761006560000015796474414627978650_">
		<use xlink:href="#SVGID_1_"  style="overflow:visible;"/>
	</clipPath>
	<g id="Grupo_10" style="clip-path:url(#SVGID_00000127766461242761006560000015796474414627978650_);">
		<path id="Caminho_3" class="st1" d="M40.3,19.3c-0.1,0-0.3-0.1-0.4-0.1l-2-2c-0.1-0.1-0.1-0.2-0.1-0.4v-3.6H13.2v3.6
			c0,0.1-0.1,0.3-0.1,0.4l-2,2c-0.1,0.1-0.2,0.1-0.4,0.1H2.5c-0.1,0-0.3-0.1-0.4-0.1l-2-2C0.1,17,0,16.9,0,16.8V2.5
			c0-0.1,0.1-0.3,0.1-0.4l2-2C2.3,0.1,2.4,0,2.5,0h8.1c0.1,0,0.3,0.1,0.4,0.1l2,2c0.1,0.1,0.1,0.2,0.1,0.4v3.6h24.6V2.5
			c0-0.1,0.1-0.3,0.1-0.4l2-2C40.1,0.1,40.2,0,40.3,0h8.1c0.1,0,0.3,0.1,0.4,0.1l2,2C50.9,2.3,51,2.4,51,2.5v14.2
			c0,0.1-0.1,0.3-0.1,0.4l-2,2c-0.1,0.1-0.2,0.1-0.4,0.1L40.3,19.3z M44.4,14.2c0.3,0,0.5,0.2,0.5,0.5v3.6h3.3l1.7-1.7V2.8L48.2,1
			h-3.3v3.6c0,0.3-0.2,0.5-0.5,0.5c-0.3,0-0.5-0.2-0.5-0.5c0,0,0,0,0,0V1h-3.3l-1.7,1.7v13.8l1.7,1.7h3.3v-3.6
			C43.9,14.5,44.1,14.2,44.4,14.2 M6.6,14.2c0.3,0,0.5,0.2,0.5,0.5v3.6h3.3l1.7-1.7V2.8L10.5,1H7.1v3.6c0,0.3-0.2,0.5-0.5,0.5
			c-0.3,0-0.5-0.2-0.5-0.5V1H2.8L1,2.8v13.8l1.7,1.7h3.3v-3.6C6.1,14.5,6.3,14.2,6.6,14.2 M32.4,12.2h5.4V7.1h-5.4L32.4,12.2z
			 M26,12.2h5.4V7.1H26L26,12.2z M19.6,12.2H25V7.1h-5.4L19.6,12.2z M13.2,12.2h5.4V7.1h-5.4L13.2,12.2z"/>
		<path id="Caminho_4" class="st1" d="M50.5,34.5c-0.3,0-0.5-0.2-0.5-0.5s0.2-0.5,0.5-0.5c0.3,0,0.5,0.2,0.5,0.5c0,0,0,0,0,0
			C51,34.3,50.8,34.5,50.5,34.5"/>
		<path id="Caminho_5" class="st1" d="M40.3,43.7c-0.1,0-0.3-0.1-0.4-0.1l-2-2c-0.1-0.1-0.1-0.2-0.1-0.4v-3.6H13.2v3.6
			c0,0.1-0.1,0.3-0.1,0.4l-2,2c-0.1,0.1-0.2,0.1-0.4,0.1H2.5c-0.1,0-0.3-0.1-0.4-0.1l-2-2C0.1,41.4,0,41.3,0,41.1V26.9
			c0-0.1,0.1-0.3,0.1-0.4l2-2c0.1-0.1,0.2-0.1,0.4-0.1h8.1c0.1,0,0.3,0.1,0.4,0.1l2,2c0.1,0.1,0.1,0.2,0.1,0.4v3.6h24.6v-3.6
			c0-0.1,0.1-0.3,0.1-0.4l2-2c0.1-0.1,0.2-0.1,0.4-0.1h8.1c0.1,0,0.3,0.1,0.4,0.1l2,2c0.1,0.1,0.1,0.2,0.1,0.4v2.5
			c0,0.3-0.2,0.5-0.5,0.5c-0.3,0-0.5-0.2-0.5-0.5v-2.3l-1.7-1.7h-3.3V29c0,0.3-0.2,0.5-0.5,0.5c-0.3,0-0.5-0.2-0.5-0.5c0,0,0,0,0,0
			v-3.6h-3.3l-1.7,1.7v13.8l1.7,1.7h3.3v-3.6c0-0.3,0.2-0.5,0.5-0.5c0.3,0,0.5,0.2,0.5,0.5v3.6h3.3l1.7-1.7v-2.3
			c0-0.3,0.2-0.5,0.5-0.5c0.3,0,0.5,0.2,0.5,0.5c0,0,0,0,0,0v2.5c0,0.1-0.1,0.3-0.1,0.4l-2,2c-0.1,0.1-0.2,0.1-0.4,0.1L40.3,43.7z
			 M6.6,38.6c0.3,0,0.5,0.2,0.5,0.5v3.6h3.3l1.7-1.7V27.1l-1.7-1.7H7.1V29c0,0.3-0.2,0.5-0.5,0.5c-0.3,0-0.5-0.2-0.5-0.5v-3.6H2.8
			L1,27.1v13.8l1.7,1.7h3.3v-3.6C6.1,38.8,6.3,38.6,6.6,38.6 M32.4,36.6h5.4v-5.1h-5.4L32.4,36.6z M26,36.6h5.4v-5.1H26L26,36.6z
			 M19.6,36.6H25v-5.1h-5.4L19.6,36.6z M13.2,36.6h5.4v-5.1h-5.4L13.2,36.6z"/>
	</g>
</g>
</svg>
