<?xml version="1.0" encoding="utf-8"?>
<!-- Generator: Adobe Illustrator 27.1.1, SVG Export Plug-In . SVG Version: 6.00 Build 0)  -->
<svg version="1.1" id="Frame" xmlns="http://www.w3.org/2000/svg" xmlns:xlink="http://www.w3.org/1999/xlink" x="0px" y="0px"
	 viewBox="0 0 21 29.8" style="enable-background:new 0 0 21 29.8;" xml:space="preserve">
<style type="text/css">
	.st0{fill:#FF5E2B;}
</style>
<path id="Vector" class="st0" d="M21,10.5c0-1-0.6-2-1.6-2.4c0.6-0.8,0.7-2,0.2-2.9c-0.5-0.9-1.5-1.4-2.5-1.3c0.1-1-0.4-2-1.3-2.5
	c-0.9-0.5-2-0.4-2.9,0.2c-0.5-1.3-2-1.9-3.3-1.4C8.9,0.5,8.4,1,8.1,1.6C7.3,1,6.2,0.9,5.2,1.4C4.3,1.9,3.8,2.9,3.9,3.9
	c-1-0.1-2,0.4-2.5,1.3C0.9,6.2,1,7.3,1.6,8.1C0.6,8.6,0,9.5,0,10.5c0,1,0.6,2,1.6,2.4c-0.6,0.8-0.7,2-0.2,2.9
	c0.5,0.9,1.5,1.4,2.5,1.3c-0.1,1,0.4,2,1.3,2.5c0,0,0.1,0,0.1,0.1c0,0,0,0,0,0l-2.6,8.4L6,26.3l1.8,3.3l2.7-8.7h0.2l2.7,8.7l1.8-3.3
	l3.3,1.8l-2.7-8.5c0,0,0.1,0,0.1-0.1c0,0,0,0,0,0c0.9-0.5,1.4-1.5,1.3-2.5c1,0.1,2-0.4,2.5-1.3c0.5-0.9,0.4-2-0.2-2.9
	C20.4,12.4,21,11.5,21,10.5z M10.5,16.6c-3.4,0-6.1-2.7-6.1-6.1s2.7-6.1,6.1-6.1c3.4,0,6.1,2.7,6.1,6.1
	C16.6,13.9,13.9,16.6,10.5,16.6C10.6,16.6,10.5,16.6,10.5,16.6z"/>
</svg>
