<svg id="pilates-icon" xmlns="http://www.w3.org/2000/svg" xmlns:xlink="http://www.w3.org/1999/xlink" width="65.509" height="48" viewBox="0 0 65.509 48">
  <defs>
    <clipPath id="clip-path">
      <rect id="Retângulo_14" data-name="Retângulo 14" width="65.509" height="48" fill="#ff5e2b"/>
    </clipPath>
  </defs>
  <g id="Grupo_51" data-name="Grupo 51" clip-path="url(#clip-path)">
    <path id="Caminho_29" data-name="Caminho 29" d="M64.856,48a.652.652,0,1,0,0-1.3H30.2l1.26-1.137a9.468,9.468,0,0,0,1.973-2.5l8.464-15.5h9.693l.074.017a6.657,6.657,0,0,0,1.523.169,7.7,7.7,0,0,0,4.075-1.14l.145-.095.173-.011a6.166,6.166,0,0,0,5.77-6.151.652.652,0,0,0-.653-.653H35.716a.653.653,0,0,0,0,1.305h5.765a2.073,2.073,0,0,1,.183,4.138L18.1,27.226c-.094.009-.19.013-.284.013A3.12,3.12,0,0,1,17.824,21h6.147a.653.653,0,0,0,0-1.305H17.714l-.2-.243A18.471,18.471,0,0,0,14.864,16.8l-.569-.466.53-.509a6.586,6.586,0,0,0,2.043-4.785V9.331a6.645,6.645,0,0,0-5.842-6.594L10.684,2.7l-.159-.3A4.489,4.489,0,0,0,6.592,0,4.432,4.432,0,0,0,3.5,7.6l.246.241-.059.339a6.687,6.687,0,0,0-.1,1.15v1.711a6.625,6.625,0,0,0,3.049,5.582l.526.34L6.84,17.5a14.828,14.828,0,0,0,.383,15.638L13.552,42.8a11.515,11.515,0,0,0,2.494,2.728l1.473,1.164H.653A.653.653,0,0,0,.653,48ZM32.287,42.433A8.18,8.18,0,0,1,25.1,46.694H23.17a10.171,10.171,0,0,1-6.755-2.558l-.519-.46,7.354-7.354.407.175a2.852,2.852,0,0,0,1.138.236c.05,0,.1,0,.151,0a2.927,2.927,0,0,0,2.135-1.1l6.763-8.492,7.14-.634Zm-12.539-13.5a22.483,22.483,0,0,0,2.283,6.036l.288.443-7.281,7.282L8.314,32.426a13.521,13.521,0,0,1-.147-14.592l.242-.386.445.094a6.661,6.661,0,0,0,1.371.143,6.586,6.586,0,0,0,2.491-.486l.34-.138.295.219a18.611,18.611,0,0,1,2.32,2.043l.561.588-.694.421a4.424,4.424,0,0,0,2.29,8.212c.129,0,.26-.006.388-.017l1.39-.123Zm6.311,5.89a1.621,1.621,0,0,1-1.183.608l-.083,0a1.536,1.536,0,0,1-1.106-.46c-1.048-1.065-1.779-3.14-2.555-5.928l-.21-.756L32.049,27.3ZM61.8,21.853A4.849,4.849,0,0,1,57.186,25.2a.657.657,0,0,0-.4.137,6.1,6.1,0,0,1-3.584,1.1q-.126,0-.251-.005l-.626-.026,0-5.413h9.758Zm-10.785,4.4h-7.75l.851-1.061a3.395,3.395,0,0,0,.523-3.31L44.309,21h6.712ZM15.562,11.042A5.337,5.337,0,0,1,5.23,12.921L4.9,12.038h3.8a.65.65,0,0,0,.58-.353,3.8,3.8,0,0,1,3.386-2.062h2.9ZM10.238,3.994a5.372,5.372,0,0,1,4.975,3.44l.338.885H12.658a5.117,5.117,0,0,0-4.163,2.141l-.2.274H4.888v-1.4a5.336,5.336,0,0,1,.233-1.564.649.649,0,0,0-.262-.734,3.127,3.127,0,1,1,4.727-3.5.649.649,0,0,0,.625.465h.026Z" transform="translate(0 0.001)" fill="#ff5e2b"/>
    <path id="Caminho_30" data-name="Caminho 30" d="M168.922,95.952a.654.654,0,0,0,.653-.653.653.653,0,1,0-1.115.46.667.667,0,0,0,.463.193" transform="translate(-139.077 -74.954)" fill="#ff5e2b"/>
  </g>
</svg>
