<?xml version="1.0" encoding="utf-8"?>
<!-- Generator: Adobe Illustrator 27.1.1, SVG Export Plug-In . SVG Version: 6.00 Build 0)  -->
<svg version="1.1" id="Grupo_20" xmlns="http://www.w3.org/2000/svg" xmlns:xlink="http://www.w3.org/1999/xlink" x="0px" y="0px"
	 viewBox="0 0 67.4 52.4" style="enable-background:new 0 0 67.4 52.4;" xml:space="preserve">
<style type="text/css">
	.st0{clip-path:url(#SVGID_00000034050068641158846520000011568530231091236783_);}
	.st1{fill:#FF5E2B;}
</style>
<g>
	<defs>
		<rect id="SVGID_1_" width="67.4" height="52.4"/>
	</defs>
	<clipPath id="SVGID_00000117638747195235704040000000174211187161184129_">
		<use xlink:href="#SVGID_1_"  style="overflow:visible;"/>
	</clipPath>
	<g id="Grupo_14" style="clip-path:url(#SVGID_00000117638747195235704040000000174211187161184129_);">
		<path id="Caminho_9" class="st1" d="M37.2,52.4c-0.2,0-0.4-0.1-0.6-0.3l-3-4.5l-3,4.5c-0.1,0.2-0.3,0.3-0.6,0.3h0
			c-6.4-0.1-12.8-1-19.1-2.7c-5.5-1.6-8.4-3.7-8.4-6c0-1.7,1.5-3.3,4.4-4.7L8,38.5l-0.8-0.7C4.1,35.1,1.7,31.6,0,27.8
			c0-0.1-0.1-0.2,0-0.4c0-0.2,0.2-0.4,0.4-0.5C4,25.3,8,24.4,12,24.4l1,0l-0.2-0.9c-1.2-4.5-1.5-9.2-0.9-13.8
			c0.1-0.3,0.3-0.6,0.7-0.6c0,0,0.1,0,0.1,0c4.4,1.1,8.5,3,12.1,5.6l0.8,0.6l0.2-1c1.4-5.2,3.9-10.1,7.4-14.2
			c0.2-0.3,0.7-0.3,0.9-0.1c0,0,0,0,0.1,0.1c3.5,4.1,6,9,7.4,14.2l0.2,1l0.8-0.6c3.6-2.6,7.7-4.5,12.1-5.6c0.2,0,0.4,0,0.5,0.1
			c0.2,0.1,0.3,0.3,0.3,0.4c0.6,4.6,0.3,9.3-0.9,13.8l-0.2,0.9l1,0c4,0,7.9,0.9,11.6,2.5c0.3,0.1,0.5,0.5,0.3,0.8
			c-1.6,3.9-4,7.4-7.2,10.1l-0.8,0.7l0.9,0.4c2.9,1.4,4.4,2.9,4.4,4.7c0,2.8-4.1,4.7-7.5,5.8c-0.1,0-0.1,0-0.2,0
			c-0.4,0-0.7-0.3-0.7-0.7c0-0.3,0.2-0.5,0.5-0.6c4.2-1.3,6.5-3,6.5-4.5c0-1.3-1.7-2.8-4.9-4l-0.3-0.1l-0.3,0.2
			c-1.5,1-3,1.9-4.7,2.6c-2.9,1.2-6,1.8-9.1,1.8c-3.5,0-6.9-0.8-10.1-2.2l-0.3-0.1l-0.3,0.1c-3.2,1.5-6.7,2.2-10.2,2.2
			c-3.1,0-6.1-0.6-9-1.8c-1.6-0.7-3.2-1.5-4.6-2.6l-0.3-0.2l-0.3,0.1c-3.2,1.2-4.9,2.7-4.9,4c0,1.6,2.8,3.4,7.4,4.8
			c5.9,1.6,11.9,2.4,18,2.6l0.4,0l3.3-5.1c0.2-0.3,0.6-0.4,0.9-0.2c0.1,0,0.1,0.1,0.2,0.2l3.3,5.1l0.4,0c2.4-0.1,4.8-0.3,7.2-0.5
			c0.4-0.1,0.7,0.2,0.8,0.6s-0.2,0.7-0.6,0.8c0,0,0,0,0,0C42.7,52.1,40,52.3,37.2,52.4L37.2,52.4z M55.4,25.7c-0.4,0-0.7,0-1.1,0
			l-0.4,0l-0.2,0.4c-0.6,1.5-1.3,2.9-2.2,4.2c-3.8,5.5-9.7,8.6-14,10.2l-1.9,0.7l2,0.6c2.2,0.6,4.4,1,6.6,1c2.9,0,5.8-0.6,8.4-1.7
			c5.7-2.5,10.3-6.9,12.9-12.5l0.3-0.7l-0.7-0.3C62.1,26.4,58.7,25.8,55.4,25.7 M12,25.7c-3.3,0-6.7,0.7-9.8,1.9l-0.7,0.3l0.3,0.7
			C4.4,34.1,9,38.6,14.7,41c2.7,1.1,5.5,1.7,8.4,1.7c2.2,0,4.5-0.3,6.6-1l2-0.6l-1.9-0.7c-4.3-1.6-10.2-4.6-14-10.2
			c-0.9-1.3-1.6-2.7-2.2-4.2l-0.2-0.4l-0.4,0C12.7,25.7,12.3,25.7,12,25.7 M33.2,2.4c-4.4,5.8-6.8,12.5-6.8,18.4
			c0,8.4,4.8,15.7,6.8,18.4l0.5,0.7l0.5-0.7c2.1-2.7,6.9-10,6.9-18.4c0-5.9-2.5-12.6-6.8-18.4l-0.5-0.7L33.2,2.4z M13,11.5
			c-0.6,6.9,0.9,13.5,4,18c3.5,5.1,8.9,8,12.9,9.5l2,0.7l-1.2-1.7c-2.6-4-5.7-10.2-5.7-17.3c0-1.2,0.1-2.3,0.3-3.5l0.1-0.4L25,16.7
			c-3.3-2.6-7.1-4.6-11.1-5.8l-0.8-0.2L13,11.5z M53.5,10.9c-4,1.2-7.8,3.2-11.1,5.8l-0.3,0.2l0.1,0.4c0.2,1.2,0.3,2.3,0.3,3.5
			c0,7.1-3.1,13.3-5.7,17.2l-1.2,1.8l2-0.8c4-1.5,9.4-4.4,12.9-9.5c3.1-4.6,4.6-11.1,4-18l-0.1-0.8L53.5,10.9z"/>
		<path id="Caminho_10" class="st1" d="M51.2,50.8c-0.4,0-0.7-0.3-0.7-0.7s0.3-0.7,0.7-0.7c0.4,0,0.7,0.3,0.7,0.7c0,0,0,0,0,0
			C51.8,50.5,51.5,50.8,51.2,50.8"/>
	</g>
</g>
</svg>
