<?xml version="1.0" encoding="utf-8"?>
<!-- Generator: Adobe Illustrator 27.1.1, SVG Export Plug-In . SVG Version: 6.00 Build 0)  -->
<svg version="1.1" id="Grupo_13" xmlns="http://www.w3.org/2000/svg" xmlns:xlink="http://www.w3.org/1999/xlink" x="0px" y="0px"
	 viewBox="0 0 47.7 63.7" style="enable-background:new 0 0 47.7 63.7;" xml:space="preserve">
<style type="text/css">
	.st0{clip-path:url(#SVGID_00000030483110207326345790000007745190818711773592_);}
	.st1{fill:#FF5E2B;}
</style>
<g>
	<defs>
		<rect id="SVGID_1_" width="47.7" height="63.7"/>
	</defs>
	<clipPath id="SVGID_00000054251831601176345940000004866973054261741981_">
		<use xlink:href="#SVGID_1_"  style="overflow:visible;"/>
	</clipPath>
	<g id="Grupo_12" style="clip-path:url(#SVGID_00000054251831601176345940000004866973054261741981_);">
		<path id="Caminho_6" class="st1" d="M42,63.7c-1.6,0-2.9-1.1-3.1-2.7l-2.1-13.5l-9.5-2.9l-5.4,11.5c-0.5,1.1-1.4,1.9-2.5,2.3
			L5,63.5c-1.6,0.6-3.5-0.3-4.1-1.9c-0.5-1.5,0.1-3.1,1.4-3.8l11.8-6.6l4.4-14.3V24.1H5.7c-3.2,0-5.7-2.6-5.7-5.7
			c0-0.4,0.3-0.6,0.6-0.6c0,0,0,0,0,0h3.4c0.4,0,0.6,0.3,0.6,0.6S4.4,19,4.1,19H1.2l0.3,0.8c0.6,1.8,2.3,3,4.2,3h12.8V19h-3
			c-0.4,0-0.6-0.3-0.6-0.6s0.3-0.6,0.6-0.6h3.1l0.1-0.5c0.6-3.1,3.6-5.1,6.7-4.5c2.2,0.5,4,2.2,4.5,4.5l0.1,0.5h17.1
			c0.4,0,0.6,0.3,0.6,0.6l0,0c0,3.2-2.6,5.7-5.7,5.7H29.9v10L42.6,40c1.6,0.7,2.6,2.3,2.6,4v16.5C45.2,62.3,43.8,63.7,42,63.7
			 M40.1,60.8c0.1,1,1.1,1.8,2.1,1.6c1-0.1,1.7-1,1.7-1.9v-4.4h-4.5L40.1,60.8z M3,58.9c-0.9,0.5-1.3,1.6-0.8,2.6
			c0.4,0.9,1.5,1.3,2.4,0.9l5-1.8l-2.1-4.2L3,58.9z M15.3,51.8c0,0.2-0.2,0.3-0.3,0.4l-6.4,3.6l2.2,4.4l8.2-2.9
			c0.8-0.3,1.4-0.9,1.8-1.6l5.3-11.3L25.4,44c-1.9-0.6-2.5-0.8-2.7-0.8l-0.1,0h0l0,0c-1.2-0.4-2.2-1.1-2.9-2.1l-0.8-1L15.3,51.8z
			 M37.5,46.4c0.2,0.1,0.4,0.3,0.4,0.5l1.2,7.9h4.7V44c0-1.2-0.7-2.3-1.8-2.9l-12.9-6h-9.4v2.5c0,2,1.3,3.7,3.1,4.2l0.1,0
			c0.2,0.1,1.1,0.3,4.1,1.2l0,0l0.1,0L37.5,46.4z M24.2,14c-2.5,0-4.4,2-4.4,4.4v15.5h8.9v-9.8h-1.9c-1.8,0-3.1-1.5-3.1-3.2
			c0-1.7,1.4-3.1,3.1-3.1h1.9l-0.3-0.8C27.8,15.1,26.1,14,24.2,14 M26.8,19c-1.1,0-1.9,0.9-1.9,1.9s0.9,1.9,1.9,1.9H42
			c1.9,0,3.6-1.2,4.2-3l0.3-0.8L26.8,19z"/>
		<path id="Caminho_7" class="st1" d="M24.2,11.4c-3.2,0-5.7-2.6-5.7-5.7S21.1,0,24.2,0s5.7,2.6,5.7,5.7c0,0,0,0,0,0
			C29.9,8.9,27.4,11.4,24.2,11.4 M24.2,1.3c-2.5,0-4.4,2-4.4,4.4s2,4.4,4.4,4.4c2.5,0,4.4-2,4.4-4.4C28.7,3.3,26.7,1.3,24.2,1.3"/>
		<path id="Caminho_8" class="st1" d="M9.8,19c-0.4,0-0.6-0.3-0.6-0.6c0-0.4,0.3-0.6,0.6-0.6c0.4,0,0.6,0.3,0.6,0.6S10.1,19,9.8,19
			L9.8,19"/>
	</g>
</g>
</svg>
