<?xml version="1.0" encoding="utf-8"?>
<!-- Generator: Adobe Illustrator 27.2.0, SVG Export Plug-In . SVG Version: 6.00 Build 0)  -->
<svg version="1.1" id="Camada_1" xmlns:sketch="http://www.bohemiancoding.com/sketch/ns"
	 xmlns="http://www.w3.org/2000/svg" xmlns:xlink="http://www.w3.org/1999/xlink" x="0px" y="0px" viewBox="0 0 60 60"
	 style="enable-background:new 0 0 60 60;" xml:space="preserve">
<style type="text/css">
	.st0{fill-rule:evenodd;clip-rule:evenodd;fill:#F86101;}
	.st1{fill-rule:evenodd;clip-rule:evenodd;fill:#FFFFFF;}
</style>
<g id="black">
	<g id="youtube">
		<path class="st0" d="M30,60c16.6,0,30-13.4,30-30S46.6,0,30,0S0,13.4,0,30S13.4,60,30,60z"/>
		<path class="st1" d="M41.7,28.8H18.3c-3.7,0-6.7,2.7-6.7,6.5v6.5c0,3.7,3,6.7,6.7,6.7h23.4c3.7,0,6.7-3,6.7-6.7v-6.4
			C48.5,31.6,45.4,28.8,41.7,28.8z M22.9,34.1h-2.3v10.4h-2.2V34.1h-2.3v-1.8h6.7V34.1z M28.7,45h-1.9v-1c-0.4,0.4-0.7,0.6-1.1,0.8
			c-0.4,0.2-0.8,0.3-1.1,0.3c-0.4,0-0.8-0.1-1-0.4c-0.2-0.3-0.3-0.7-0.3-1.2V36h1.9v6.9c0,0.2,0,0.4,0.1,0.5
			c0.1,0.1,0.2,0.1,0.4,0.1c0.1,0,0.3-0.1,0.5-0.2c0.2-0.1,0.4-0.3,0.6-0.5V36h1.9L28.7,45L28.7,45z M36.8,42.9
			c0,0.6-0.2,1.1-0.5,1.5c-0.3,0.3-0.7,0.8-1.3,0.8c-0.4,0-1.3-0.1-1.6-0.2c-0.3-0.1-0.6-0.3-0.8-0.6V45h-2V32.5h2v4.2
			c0.3-0.3,0.5-0.5,0.8-0.6c0.3-0.1,1.1-0.2,1.4-0.2c0.6,0,1.1-0.1,1.4,0.3c0.3,0.4,0.5,0.9,0.5,1.7L36.8,42.9L36.8,42.9z
			 M43.8,40.5h-3.7v1.7c0,0.5,0.1,0.8,0.2,1c0.1,0.2,0.3,0.3,0.7,0.3c0.3,0,0.5-0.1,0.7-0.2c0.1-0.2,0.2-0.5,0.2-1v-0.4h2v0.5
			c0,0.9-0.2,1.6-0.7,2.1c-0.5,0.5-1.2,0.7-2.2,0.7c-0.9,0-1.6-0.2-2.1-0.7c-0.5-0.5-0.7-1.2-0.7-2v-4c0-0.8,0.3-1.4,0.8-1.9
			c0.5-0.5,1.3-0.7,2.1-0.7c0.9,0,1.6,0.2,2,0.7c0.5,0.5,0.7,1.1,0.7,2L43.8,40.5L43.8,40.5z M41,37.2c-0.3,0-0.5,0.1-0.7,0.2
			c-0.1,0.2-0.2,0.4-0.2,0.8v0.9h1.7v-0.9c0-0.4-0.1-0.7-0.2-0.8C41.5,37.3,41.3,37.2,41,37.2z M33.4,37.3c-0.1,0-0.3,0-0.4,0.1
			c-0.1,0.1-0.3,0.2-0.4,0.3v5.6c0.2,0.1,0.3,0.3,0.5,0.3c0.1,0.1,0.3,0.1,0.5,0.1c0.2,0,1-0.1,1.1-0.2c0.1-0.1,0.2-0.3,0.2-0.6
			v-4.7c0-0.3-0.1-0.5-0.2-0.7C34.4,37.4,33.7,37.3,33.4,37.3z M35.9,26.6c0.4,0,0.8-0.1,1.2-0.3c0.4-0.2,0.8-0.5,1.2-1v1.2h2.1
			V16.1h-2.1V24c-0.2,0.2-0.4,0.4-0.6,0.6c-0.2,0.1-0.4,0.2-0.6,0.2c-0.2,0-0.3-0.1-0.4-0.2c-0.1-0.1-0.1-0.3-0.1-0.5v-8h-2.1v8.7
			c0,0.6,0.1,1.1,0.4,1.4C35,26.4,35.4,26.6,35.9,26.6z M29.7,26.7c1,0,1.7-0.3,2.3-0.8c0.5-0.5,0.8-1.2,0.8-2.1v-5.4
			c0-0.8-0.3-1.4-0.8-1.9c-0.6-0.5-1.3-0.8-2.1-0.8c-1,0-1.7,0.2-2.3,0.7c-0.6,0.5-0.8,1.1-0.8,1.9v5.4c0,0.9,0.3,1.6,0.8,2.1
			C28,26.5,28.8,26.7,29.7,26.7z M28.8,18.4c0-0.2,0.1-0.4,0.2-0.6c0.2-0.1,0.4-0.2,0.6-0.2c0.3,0,0.5,0.1,0.7,0.2
			c0.2,0.1,0.3,0.3,0.3,0.6V24c0,0.3-0.1,0.5-0.3,0.7c-0.2,0.2-0.4,0.2-0.7,0.2c-0.3,0-0.5-0.1-0.6-0.2c-0.1-0.2-0.2-0.4-0.2-0.7
			L28.8,18.4L28.8,18.4z M21.4,26.5h2.4v-6.7l2.8-8.2h-2.4l-1.5,5.6h-0.1l-1.5-5.6h-2.4l2.8,8.5L21.4,26.5L21.4,26.5z"/>
	</g>
</g>
</svg>
