<?xml version="1.0" encoding="utf-8"?>
<!-- Generator: Adobe Illustrator 27.1.1, SVG Export Plug-In . SVG Version: 6.00 Build 0)  -->
<svg version="1.1" id="OUTLINE_copy_2" xmlns="http://www.w3.org/2000/svg" xmlns:xlink="http://www.w3.org/1999/xlink" x="0px"
	 y="0px" viewBox="0 0 46 46" style="enable-background:new 0 0 46 46;" xml:space="preserve">
<style type="text/css">
	.st0{fill:#F86101;}
</style>
<g id="Grupo_31">
	<g id="Grupo_29">
		<path id="Caminho_20" class="st0" d="M23,0C10.3,0,0,10.3,0,23s10.3,23,23,23s23-10.3,23-23S35.7,0,23,0z M23,34.5
			c-2.1,0-4.2-0.5-6.1-1.5l-7.2,3.3l2-8C7.9,22,9.8,13.8,16,10s14.4-2,18.3,4.3s2,14.4-4.3,18.3C27.9,33.8,25.5,34.5,23,34.5
			L23,34.5z"/>
	</g>
	<g id="Grupo_30" transform="translate(11.917 10.2)">
		<path id="Caminho_21" class="st0" d="M11.1,0C5,0,0,4.9,0,11.1c0,2.7,1,5.2,2.7,7.3l-1.5,3.8L4.6,20c1.9,1.4,4.2,2.2,6.5,2.1
			c6.1,0,11.1-5,11.1-11.1S17.2,0,11.1,0L11.1,0z M18.1,15.7c-0.5,1-1.4,1.7-2.4,2c-2.2,0.5-5.3-1.3-7.3-3.1c-2-1.8-4-4.8-3.7-7
			c0.2-1.1,0.8-2,1.7-2.6c0.3,0,0.6-0.1,0.9-0.1c0.4,0,0.7,0.1,0.8,0.3l1.2,3.1C9.3,8.4,9.1,8.7,8.8,9C8.5,9.4,8.5,9.4,8.1,9.8
			C8,10,8,10.2,8.1,10.4c0.5,0.9,1.1,1.7,1.8,2.4c0.7,0.7,1.6,1.3,2.5,1.6c0.2,0.1,0.4,0.1,0.6,0.1c0.2,0,0.3-0.2,0.5-0.4
			c0.3-0.4,0.5-0.6,0.8-1c0.2-0.3,0.5-0.4,0.7-0.3l2.7,1.2c0.2,0.1,0.3,0.4,0.3,0.7C18.1,15.1,18.2,15.4,18.1,15.7L18.1,15.7z"/>
	</g>
</g>
</svg>
