<?xml version="1.0" encoding="utf-8"?>
<!-- Generator: Adobe Illustrator 27.1.1, SVG Export Plug-In . SVG Version: 6.00 Build 0)  -->
<svg version="1.1" id="Camada_1" xmlns="http://www.w3.org/2000/svg" xmlns:xlink="http://www.w3.org/1999/xlink" x="0px" y="0px"
	 viewBox="0 0 29 29" style="enable-background:new 0 0 29 29;" xml:space="preserve">
<style type="text/css">
	.st0{fill:#FF5E2B;}
</style>
<path id="Star_6" class="st0" d="M13.6,2.8c0.2-0.5,0.7-0.8,1.3-0.6c0.3,0.1,0.5,0.3,0.6,0.6l2.5,7.3c0.1,0.4,0.5,0.7,0.9,0.7
	l7.5,0.2c0.6,0,1,0.5,1,1c0,0.3-0.1,0.6-0.4,0.8l-6,4.8c-0.3,0.3-0.4,0.7-0.3,1l2.1,7.6c0.2,0.5-0.2,1.1-0.7,1.2
	c-0.3,0.1-0.6,0-0.9-0.2l-6.1-4.4c-0.3-0.3-0.8-0.3-1.2,0l-6,4.4c-0.4,0.3-1.1,0.2-1.4-0.2c-0.2-0.2-0.2-0.6-0.2-0.9l2.1-7.6
	c0.1-0.4,0-0.8-0.3-1l-6-4.8c-0.4-0.3-0.5-1-0.2-1.4C2.1,11.1,2.4,11,2.7,11l7.5-0.2c0.4,0,0.8-0.3,0.9-0.7L13.6,2.8z"/>
</svg>
